<svg viewBox="0 0 114 71" fill="none" xmlns="http://www.w3.org/2000/svg">
  <path fill-rule="evenodd" clip-rule="evenodd"
    d="M99.9147 7.06477C104.626 5.55645 107.743 5.92971 109.544 6.49166C110.464 6.77864 111.097 7.13253 111.47 7.38059C111.657 7.50508 111.779 7.60353 111.838 7.65422C111.855 7.66894 111.867 7.67958 111.874 7.68559C113.021 8.83912 114.886 8.86893 116.069 7.74115C117.269 6.59824 117.315 4.69931 116.172 3.49975L114 5.56917C116.172 3.49975 116.17 3.49812 116.169 3.49647L116.166 3.49308L116.159 3.48596L116.144 3.47043C116.133 3.4595 116.121 3.44743 116.108 3.43428C116.082 3.40798 116.05 3.37731 116.014 3.34273C115.941 3.27358 115.848 3.18862 115.734 3.09136C115.506 2.8969 115.195 2.65262 114.796 2.38685C113.996 1.85438 112.849 1.23762 111.331 0.764016C108.257 -0.195173 103.874 -0.502697 98.0853 1.35046C94.9406 2.35722 92.2916 4.15484 89.9494 6.11995C88.2874 7.51436 86.6476 9.114 85.0858 10.6375L85.0858 10.6375C84.496 11.2128 83.9174 11.7773 83.353 12.3157C79.0573 16.4132 74.9641 19.6183 69.2588 20.0785C62.9784 20.5851 59.0305 16.9705 53.9933 11.9803C53.8543 11.8426 53.7143 11.7037 53.5734 11.5639L53.5696 11.5601C48.8768 6.90257 43.1386 1.20766 34 1.20762C29.2239 1.20759 24.7518 3.05684 20.857 5.5719C16.9513 8.09396 13.4408 11.404 10.5257 14.6251C7.60062 17.8571 5.2069 21.0756 3.54696 23.4795C2.71505 24.6843 2.06264 25.6915 1.61512 26.4028C1.39125 26.7586 1.21835 27.0408 1.0996 27.2372C1.04021 27.3354 0.994337 27.4122 0.962371 27.466L0.924894 27.5294L0.914065 27.5478L0.910643 27.5537L0.909433 27.5558C0.908967 27.5566 0.908557 27.5573 3.5 29.0687L0.908557 27.5573C0.0738168 28.9885 0.557355 30.8254 1.98857 31.6601C3.41947 32.4947 5.2559 32.0116 6.0909 30.5811L6.09123 30.5805L6.09144 30.5801L6.09625 30.572L6.1218 30.5287C6.14568 30.4885 6.18318 30.4257 6.2339 30.3418C6.33536 30.174 6.48961 29.9221 6.69348 29.5981C7.10142 28.9498 7.70682 28.0147 8.48429 26.8888C10.0431 24.6312 12.2744 21.6345 14.9743 18.6512C17.6842 15.6569 20.7987 12.7517 24.1118 10.6123C27.4357 8.46597 30.7761 7.2076 34 7.20762C40.5846 7.20765 44.7047 11.2242 49.7706 16.2428L49.867 16.3382C54.6491 21.0762 60.4361 26.8097 69.7412 26.0591C77.6656 25.4199 83.0723 20.8752 87.4943 16.6573C88.1719 16.0109 88.8162 15.3823 89.4417 14.7722L89.4418 14.772C90.9387 13.3117 92.3273 11.9569 93.8058 10.7165C95.8496 9.00172 97.8094 7.73875 99.9147 7.06477ZM99.4147 45.1339C104.126 43.6255 107.243 43.9988 109.044 44.5608C109.964 44.8477 110.597 45.2016 110.97 45.4497C111.157 45.5742 111.279 45.6726 111.338 45.7233C111.355 45.738 111.367 45.7487 111.374 45.7547C112.521 46.9082 114.386 46.938 115.569 45.8102C116.769 44.6673 116.815 42.7684 115.672 41.5688L113.5 43.6383C115.672 41.5688 115.67 41.5672 115.669 41.5656L115.666 41.5622L115.659 41.5551L115.644 41.5395C115.636 41.5315 115.627 41.5229 115.618 41.5136L115.608 41.5034C115.582 41.4771 115.55 41.4464 115.514 41.4118C115.441 41.3427 115.348 41.2577 115.234 41.1605C115.006 40.966 114.695 40.7217 114.296 40.4559C113.496 39.9235 112.349 39.3067 110.831 38.8331C107.757 37.8739 103.374 37.5664 97.5853 39.4196C94.4406 40.4263 91.7916 42.2239 89.4494 44.189C87.7874 45.5835 86.1475 47.1831 84.5858 48.7066C83.996 49.2819 83.4174 49.8464 82.853 50.3848C78.5573 54.4823 74.4641 57.6874 68.7588 58.1476C62.4784 58.6542 58.5305 55.0396 53.4933 50.0494C53.353 49.9104 53.2118 49.7703 53.0696 49.6292C48.3768 44.9717 42.6386 39.2768 33.5 39.2767C28.7239 39.2767 24.2518 41.1259 20.357 43.641C16.4513 46.163 12.9408 49.4731 10.0257 52.6942C7.10062 55.9262 4.7069 59.1447 3.04696 61.5486C2.21505 62.7534 1.56264 63.7606 1.11512 64.4719C0.891251 64.8277 0.718353 65.1099 0.599598 65.3063C0.540212 65.4045 0.494337 65.4813 0.462371 65.5351L0.424894 65.5985L0.414065 65.6169L0.410643 65.6228L0.409433 65.6249C0.408967 65.6257 0.408557 65.6264 3 67.1378L0.408557 65.6264C-0.426183 67.0576 0.0573549 68.8945 1.48857 69.7292C2.91947 70.5638 4.7559 70.0806 5.5909 68.6502L5.59123 68.6496L5.59144 68.6492L5.59625 68.641L5.6218 68.5978C5.64568 68.5576 5.68318 68.4948 5.7339 68.4109C5.83536 68.2431 5.98961 67.9912 6.19348 67.6672C6.60142 67.0189 7.20682 66.0838 7.98429 64.9578C9.5431 62.7003 11.7744 59.7035 14.4743 56.7203C17.1842 53.726 20.2987 50.8208 23.6118 48.6814C26.9357 46.5351 30.2761 45.2767 33.5 45.2767C40.0846 45.2767 44.2047 49.2933 49.2706 54.3119L49.367 54.4073C54.1491 59.1453 59.9361 64.8788 69.2412 64.1282C77.1656 63.489 82.5723 58.9443 86.9943 54.7264C87.6719 54.08 88.3162 53.4514 88.9417 52.8413L88.9418 52.8411C90.4387 51.3808 91.8273 50.026 93.3058 48.7855C95.3496 47.0708 97.3094 45.8078 99.4147 45.1339Z"
    fill="#4CC5F9" fill-opacity="0.3" />
</svg>